# xmcd
#
# Track frame offsets: 
#        150
#        16260
#        33250
#        53062
#        68720
#        84350
#
# Disc length: 1371 seconds
#
# Revision: 0
# Processed by: cddbd v1.5.1PL0 Copyright (c) Steve Scherf et al.
# Submitted via: ExactAudioCopy v0.90b4
#
DISCID=3c055906
DTITLE=Cledus T. Judd - A 6 Pack Of Judd
DYEAR=2003
DGENRE=Comedy
TTITLE0=Where's Your Mommy
TTITLE1=I Was Country When Country Wasn't Pop
TTITLE2=My Crowd
TTITLE3=270 Somethin'
TTITLE4=Riding With Inmate Jarome
TTITLE5=New Car
EXTD=Submitted By scanner1\nBorn On Date 04-29-2003
EXTT0=
EXTT1=
EXTT2=
EXTT3=
EXTT4=
EXTT5=
PLAYORDER=
